<svg width="146" height="23" viewBox="0 0 146 23" fill="none" xmlns="http://www.w3.org/2000/svg">
<path d="M100.885 5.41739H92.4082C92.337 5.41739 92.2657 5.48696 92.2657 5.55652C92.052 9.31304 91.3397 13.3478 90.2712 16.6174V16.7565C90.3425 16.8261 90.3425 16.8261 90.4137 16.8261H93.3342C93.4055 16.8261 93.4767 16.7565 93.4767 16.7565C94.2603 14.2522 94.9726 10.913 95.1863 8.13043H97.9644V16.7565C97.9644 16.8261 98.0356 16.8957 98.1068 16.8957H100.885C100.956 16.8957 101.027 16.8261 101.027 16.7565V5.62609C101.027 5.48696 100.956 5.41739 100.885 5.41739V5.41739ZM136.858 5.41739H134.079C134.008 5.41739 133.937 5.48696 133.937 5.55652V14.113C133.296 14.3217 132.726 14.3217 132.014 14.3217C130.162 14.3217 129.734 13.7652 129.734 11.4V5.62609C129.734 5.55652 129.663 5.48696 129.592 5.48696H126.814C126.742 5.48696 126.671 5.55652 126.671 5.62609V11.8174C126.671 15.713 128.025 17.1739 131.444 17.1739C133.367 17.1739 135.575 16.687 136.858 16.2C136.929 16.2 136.929 16.1304 136.929 16.0609V5.62609C137 5.48696 136.929 5.41739 136.858 5.41739V5.41739ZM78.0192 5.48696H75.1699C75.0986 5.48696 75.0274 5.55652 75.0274 5.55652C74.6 7.22609 73.674 10.0783 72.463 13.0696L69.6137 5.48696C69.6137 5.41739 69.5425 5.41739 69.4712 5.41739H66.6219C66.5507 5.41739 66.5507 5.48696 66.4795 5.48696C66.4082 5.55652 66.4082 5.55652 66.4795 5.62609L70.7534 16.9652C70.326 17.8696 69.8986 18.5652 69.5425 19.2609C69.2575 19.7478 68.9726 20.3043 68.6877 20.7913C68.6164 20.8609 68.6877 20.8609 68.6877 20.9304C68.7589 21 68.7589 21 68.8301 21H71.8931C71.9644 21 71.9644 20.9304 72.0356 20.9304C72.5342 19.9565 73.2466 18.5652 73.8164 17.1739C75.5973 13.0696 77.0931 9.17391 78.1616 5.62609C78.1616 5.55652 78.1616 5.55652 78.0904 5.48696H78.0192V5.48696ZM88.1342 14.1826C88.1342 14.113 88.063 14.113 88.063 14.113H87.9205C87.2794 14.3217 85.9973 14.6 85.0712 14.6C83.1479 14.6 82.2219 14.113 82.2219 11.1913C82.2219 8.89565 82.5068 7.78261 85.0712 7.78261C85.7836 7.78261 86.4959 7.85217 87.3507 8.13043C87.4219 8.13043 87.4931 8.13043 87.5644 8.06087C87.9205 7.43478 88.2767 6.73913 88.7041 5.83478V5.69565C88.7041 5.62609 88.5616 5.55652 88.5616 5.55652C87.4219 5.2087 86.0685 5 84.8575 5C80.7973 5 79.0164 6.8087 79.0164 11.0522C79.0164 15.2957 80.7973 17.1739 84.8575 17.1739C85.8548 17.1739 87.8493 16.9652 88.8466 16.5478C88.9178 16.4783 88.9178 16.4783 88.9178 16.3391L88.1342 14.1826V14.1826ZM114.562 5.48696H111.712C111.641 5.48696 111.57 5.55652 111.57 5.55652C111.142 7.22609 110.216 10.0783 109.005 13.0696L106.156 5.48696C106.156 5.41739 106.085 5.41739 106.014 5.41739H103.164C103.093 5.41739 103.093 5.48696 103.022 5.48696C102.951 5.55652 102.951 5.55652 103.022 5.62609L107.296 16.9652C106.868 17.8696 106.441 18.4957 106.085 19.2609C105.8 19.7478 105.515 20.3043 105.23 20.7913C105.159 20.8609 105.23 20.8609 105.23 20.9304C105.301 21 105.301 21 105.373 21H108.436C108.507 21 108.507 20.9304 108.578 20.9304C109.077 19.9565 109.789 18.5652 110.359 17.1739C112.14 13.0696 113.636 9.17391 114.633 5.62609C114.633 5.55652 114.633 5.55652 114.562 5.48696C114.633 5.48696 114.562 5.48696 114.562 5.48696V5.48696ZM124.962 5.41739H116.77C116.699 5.41739 116.627 5.48696 116.627 5.55652V16.6174C116.627 16.687 116.699 16.7565 116.77 16.7565H119.548C119.619 16.7565 119.69 16.687 119.69 16.6174V8.06087H123.964C124.036 8.06087 124.107 7.9913 124.107 7.9913C124.463 7.22609 124.748 6.46087 125.104 5.62609V5.48696C125.033 5.48696 124.962 5.41739 124.962 5.41739" fill="#EE3F58"/>
<path d="M47.8164 14.6C45.9644 14.6 45.3945 14.113 45.3945 11.1217C45.3945 7.92174 46.0356 7.64348 47.8164 7.64348C49.5973 7.64348 50.3096 7.92174 50.3096 11.1217C50.2384 14.1826 49.6685 14.6 47.8164 14.6ZM47.8164 5.06956C43.8274 5.06956 42.2603 6.73913 42.2603 11.0522C42.2603 15.4348 43.8274 17.1043 47.8164 17.1043C51.8055 17.1043 53.4438 15.4348 53.4438 11.0522C53.4438 6.80869 51.8055 5.06956 47.8164 5.06956ZM64.4849 14.1826C64.4849 14.113 64.4137 14.113 64.4137 14.113H64.2712C63.6301 14.3217 62.3479 14.6 61.4219 14.6C59.4986 14.6 58.5726 14.113 58.5726 11.1913C58.5726 8.89565 58.8575 7.78261 61.4219 7.78261C62.1342 7.78261 62.8466 7.85217 63.7014 8.13043C63.7726 8.13043 63.8438 8.13043 63.9151 8.06087C64.2712 7.43478 64.6274 6.73913 65.0548 5.83478V5.69565C65.0548 5.62609 64.9836 5.62609 64.9836 5.62609C63.9151 5.27826 62.4904 5.13913 61.3507 5.13913C57.2904 5.13913 55.5096 6.94783 55.5096 11.1913C55.5096 15.4348 57.2904 17.313 61.3507 17.313C62.3479 17.313 64.3425 17.1043 65.3397 16.687C65.411 16.6174 65.411 16.6174 65.411 16.4783L64.4849 14.1826ZM41.3342 5.41739H33.1425C33.0712 5.41739 33 5.48696 33 5.62609V16.687C33 16.7565 33.0712 16.8261 33.1425 16.8261H35.9205C35.9918 16.8261 36.063 16.7565 36.063 16.687V8.06087H40.337C40.4082 8.06087 40.4082 7.9913 40.4795 7.9913C40.8356 7.22609 41.1918 6.3913 41.4767 5.62609V5.48696C41.4767 5.48696 41.4055 5.41739 41.3342 5.41739Z" fill="#0065B1"/>
<path d="M33.1425 5.41739H41.3342C41.4055 5.41739 41.4767 5.48696 41.4767 5.48696V5.62609C41.1918 6.3913 40.8356 7.22609 40.4795 7.9913C40.4082 7.9913 40.4082 8.06087 40.337 8.06087H36.063V16.687C36.063 16.7565 35.9918 16.8261 35.9205 16.8261H33.1425C33.0712 16.8261 33 16.7565 33 16.687V5.62609C33 5.48696 33.0712 5.41739 33.1425 5.41739Z" fill="#0065B1"/>
<path d="M9.14247 6H12L12.063 17.2696C12.063 17.3391 11.9918 17.4087 11.9205 17.4087H9.14247C9.07123 17.4087 9 17.3391 9 17.2696V6.2087C9 6.06957 9.07123 6 9.14247 6Z" fill="#0065B1"/>
<path d="M17.9205 6H15.063L15 17.2696C15 17.3391 15.0712 17.4087 15.1424 17.4087H17.9205C17.9918 17.4087 18.063 17.3391 18.063 17.2696V6.2087C18.063 6.06957 17.9918 6 17.9205 6Z" fill="#0065B1"/>
<path d="M10 10.1395V12.9383L16.9146 13C16.9573 13 17 12.9302 17 12.8605V10.1395C17 10.0698 16.9573 10 16.9146 10H10.128C10.0427 10 10 10.0698 10 10.1395Z" fill="#0065B1"/>
<path d="M28.8655 6H28.8655C28.9328 6 29 6.06565 29 6.06565V6.19696C28.7311 6.91914 28.395 7.70697 28.0588 8.42914C28.0567 8.42914 28.0547 8.42921 28.0527 8.42933C28.0499 8.42951 28.0473 8.4298 28.0447 8.4302C27.9948 8.43808 27.9874 8.48743 27.9362 8.49406C27.9325 8.49454 27.9286 8.4948 27.9244 8.4948H27.9244H23.8908V16.6357C23.8908 16.7014 23.8236 16.767 23.7563 16.767H21.1345C21.0673 16.767 21.0001 16.7014 21.0001 16.6357V6.19696C21.0001 6.06565 21.0673 6 21.1345 6H28.8655Z" fill="#EE3F58"/>
<path d="M28.8655 16.767H28.8655C28.9327 16.767 28.9999 16.7014 28.9999 16.7014V16.5701C28.731 15.8479 28.3949 15.06 28.0588 14.3379C28.0567 14.3379 28.0546 14.3378 28.0527 14.3377C28.0499 14.3375 28.0472 14.3372 28.0447 14.3368C27.9948 14.3289 27.9873 14.2796 27.9362 14.273C27.9325 14.2725 27.9285 14.2722 27.9243 14.2722H27.9243H23.8907V6.1313C23.8907 6.06565 23.8235 6 23.7563 6H21.1345C21.0672 6 21 6.06565 21 6.1313V16.5701C21 16.7014 21.0672 16.767 21.1345 16.767H28.8655Z" fill="#EE3F58"/>
<path d="M21.0001 16.2861V16.2861C21.0001 16.3337 21.0403 16.3813 21.0403 16.3813H21.1209C21.564 16.191 22.0474 15.953 22.4905 15.7151C22.4905 15.7136 22.4905 15.7122 22.4906 15.7108C22.4908 15.707 22.4913 15.7036 22.492 15.7004C22.4985 15.6705 22.5244 15.6634 22.5298 15.6322C22.5304 15.6285 22.5308 15.6244 22.5308 15.62V15.6199V12.7649H27.5258C27.5661 12.7649 27.6063 12.7173 27.6063 12.6697V10.8139C27.6063 10.7664 27.5661 10.7188 27.5258 10.7188H21.1209C21.0403 10.7188 21.0001 10.7664 21.0001 10.8139V16.2861Z" fill="#EE3F58"/>
</svg>
